<?xml version="1.0" standalone="no"?><!DOCTYPE svg PUBLIC "-//W3C//DTD SVG 1.1//EN" "http://www.w3.org/Graphics/SVG/1.1/DTD/svg11.dtd"><svg t="1625470989085" class="icon" viewBox="0 0 1024 1024" version="1.1" xmlns="http://www.w3.org/2000/svg" p-id="7978" xmlns:xlink="http://www.w3.org/1999/xlink" width="200" height="200"><defs><style type="text/css"></style></defs><path d="M736.2 454.2L431.2 278c-20.9-12.1-45.9-12.1-66.8 0S331 311.7 331 335.8V688c0 24.1 12.5 45.8 33.4 57.8 10.5 6 21.9 9.1 33.4 9.1s22.9-3 33.4-9.1l305-176.1c20.9-12.1 33.4-33.7 33.4-57.8 0-24-12.5-45.7-33.4-57.7z m-22.3 77.1l-305 176.1c-10 5.8-18.9 1.9-22.3 0-3.3-1.9-11.1-7.7-11.1-19.3V335.9c0-11.6 7.8-17.3 11.1-19.3 2-1.2 6.1-3.1 11.2-3.1 3.3 0 7.1 0.8 11 3.1l305 176.1c10 5.8 11.1 15.4 11.1 19.3 0.2 3.9-0.9 13.5-11 19.3z" fill="#bfbfbf" p-id="7979"></path><path d="M912.7 133.6H111.3C49.9 133.6 0 183.5 0 244.9v534.3c0 61.4 49.9 111.3 111.3 111.3h801.4c61.4 0 111.3-49.9 111.3-111.3V244.9c0-61.4-49.9-111.3-111.3-111.3z m66.8 645.5c0 36.8-30 66.8-66.8 66.8H111.3c-36.8 0-66.8-30-66.8-66.8V244.9c0-36.8 30-66.8 66.8-66.8h801.4c36.8 0 66.8 30 66.8 66.8v534.2z" fill="#bfbfbf" p-id="7980"></path></svg>