<?xml version="1.0" standalone="no"?><!DOCTYPE svg PUBLIC "-//W3C//DTD SVG 1.1//EN" "http://www.w3.org/Graphics/SVG/1.1/DTD/svg11.dtd"><svg t="1624855890742" class="icon" viewBox="0 0 1024 1024" version="1.1" xmlns="http://www.w3.org/2000/svg" p-id="1875" xmlns:xlink="http://www.w3.org/1999/xlink" width="200" height="200"><defs><style type="text/css"></style></defs><path d="M783.42 177.98c-16.57 0-30 13.43-30 30v608.04c0 16.57 13.43 30 30 30s30-13.43 30-30V207.98c0-16.57-13.43-30-30-30zM340.65 131.5c-20.76-20.75-54.53-20.75-75.28 0a29.997 29.997 0 0 0-8.79 21.21v718.58c0 7.96 3.16 15.59 8.79 21.21 10.38 10.38 24.01 15.57 37.64 15.57 13.63 0 27.26-5.19 37.64-15.57l342.86-342.86c10.05-10.05 15.59-23.42 15.59-37.64 0-14.22-5.54-27.59-15.59-37.64L340.65 131.5z m-24.07 700.22V192.28L636.3 512 316.58 831.72z" p-id="1876" fill="#ffffff"></path></svg>