<?xml version="1.0" standalone="no"?><!DOCTYPE svg PUBLIC "-//W3C//DTD SVG 1.1//EN" "http://www.w3.org/Graphics/SVG/1.1/DTD/svg11.dtd"><svg t="1624893241132" class="icon" viewBox="0 0 1024 1024" version="1.1" xmlns="http://www.w3.org/2000/svg" p-id="4554" xmlns:xlink="http://www.w3.org/1999/xlink" width="200" height="200"><defs><style type="text/css"></style></defs><path d="M423.94307 758.129819c-16.891752 0-33.683553-4.397853-48.676233-12.693801-15.092631-8.3959-27.886384-20.589946-36.78204-35.182821-9.595315-15.592387-14.592875-33.583602-14.592874-52.174524V368.420107c0-18.590922 5.097511-36.682089 14.592874-52.174524 8.995608-14.592875 21.689409-26.78692 36.78204-35.182821 15.092631-8.3959 32.184285-12.793753 49.27594-12.693802 18.291069 0.099951 36.282284 5.397365 52.074573 15.192582l232.686384 144.829283c29.485603 18.39102 47.077013 50.075549 47.077013 84.858565S738.789336 579.716935 709.303734 598.107955L476.61735 742.937238c-15.792289 9.795217-33.783504 15.092631-52.074573 15.192581h-0.599707z m0-409.799902c-4.497804 0-7.996096 1.599219-9.795217 2.598731-3.098487 1.69917-10.294973 6.896633-10.294974 17.491459v289.758517c0 10.594827 7.196486 15.792289 10.294974 17.491459 3.098487 1.69917 11.294485 5.097511 20.290092-0.499756l232.686384-144.829283c8.495852-5.297413 9.395412-13.593363 9.395412-16.991703s-0.899561-11.69429-9.395412-16.991703l-232.786335-144.929234c-3.698194-2.298878-7.296437-3.098487-10.394924-3.098487z" fill="#ffffff" p-id="4555"></path><path d="M512.59978 1024c-68.966325 0-135.833675-13.493411-198.802928-40.180381-60.870278-25.687457-115.443631-62.569449-162.320742-109.446559-46.877111-46.877111-83.759102-101.550415-109.446559-162.320742-26.686969-62.969253-40.180381-129.936554-40.180381-198.802928s13.493411-135.833675 40.180381-198.802928c25.687457-60.870278 62.569449-115.443631 109.446559-162.320742S253.026525 68.366618 313.796852 42.679161C376.866057 15.992191 443.733407 2.49878 512.59978 2.49878c68.966325 0 135.833675 13.493411 198.802929 40.180381 60.870278 25.687457 115.443631 62.569449 162.320741 109.446559s83.759102 101.550415 109.44656 162.320742c26.686969 62.969253 40.180381 129.836603 40.18038 198.802928s-13.493411 135.833675-40.18038 198.802928c-25.687457 60.870278-62.569449 115.443631-109.44656 162.320742-46.877111 46.877111-101.550415 83.759102-162.320741 109.446559-62.969253 26.686969-129.836603 40.180381-198.802929 40.180381z m0-941.540264c-237.583992 0-430.789653 193.205661-430.789653 430.789654s193.205661 430.789653 430.789653 430.789653 430.789653-193.205661 430.789654-430.789653-193.205661-430.789653-430.789654-430.789654z" fill="#ffffff" p-id="4556"></path></svg>